<?xml version="1.0" encoding="utf-8"?>
<!-- Generator: Adobe Illustrator 26.5.0, SVG Export Plug-In . SVG Version: 6.00 Build 0)  -->
<svg version="1.1" id="Composant_21_1" xmlns="http://www.w3.org/2000/svg" xmlns:xlink="http://www.w3.org/1999/xlink" x="0px"
	 y="0px" viewBox="0 0 44 41.5" style="enable-background:new 0 0 44 41.5;" xml:space="preserve">
<style type="text/css">
	.st0{fill:#6FBBC6;}
</style>
<path id="Tracé_563" class="st0" d="M29,0l-7.3,9.5l0.1,0.1l-0.1,0.2l3,6.8l7.3,0.4l0.2-0.2l0.2,0.1l7.2-9.4L29,0z"/>
<path id="Tracé_564" class="st0" d="M32.3,17l-0.3,0l-5.5,4.9l1.9,7.2l0.2,0.1v0.1l11.6,2.9L44,19.7l-11.6-2.9L32.3,17z"/>
<path id="Tracé_565" class="st0" d="M31.9,17l0.3,0l0.1-0.2l-0.2-0.1L31.9,17z"/>
<path id="Tracé_566" class="st0" d="M3.6,8.2l7.6,9.1l0.2-0.1l0.2,0.2l7.3-0.7l2.7-6.9l-0.1-0.2l0.1-0.1L14,0.4L3.6,8.2z"/>
<path id="Tracé_567" class="st0" d="M21.6,9.6l0.1,0.2l0.1-0.2l-0.1-0.1L21.6,9.6z"/>
<path id="Tracé_568" class="st0" d="M15.9,29.3l0,0.2l-0.2,0.1l-0.3,11.9l13-0.2l0.3-12l-0.2,0L28.4,29L22,25.3L15.9,29.3z"/>
<path id="Tracé_569" class="st0" d="M28.4,29.2l0.2,0v-0.1L28.4,29L28.4,29.2z"/>
<path id="Tracé_570" class="st0" d="M0,20.7L4.2,33l11.4-3.4v-0.1l0.3-0.2l1.5-7.2l-5.7-4.6l-0.3,0l-0.1-0.2L0,20.7z"/>
<path id="Tracé_571" class="st0" d="M11.3,17.3l0.1,0.2l0.3,0l-0.2-0.2L11.3,17.3z"/>
<path id="Tracé_572" class="st0" d="M15.6,29.5L15.6,29.5l0.2,0l0-0.2L15.6,29.5z"/>
</svg>
